<svg width="64" height="88" viewBox="0 0 64 88" fill="none" xmlns="http://www.w3.org/2000/svg">
<rect width="64" height="64" rx="32" fill="white"/>
<path d="M38 22H39.2598C40.1556 22 40.9823 22.4844 41.4355 23.2617V23.2627L42.2881 24.7549C40.0403 24.8654 38.25 26.7249 38.25 29V33.5C38.25 35.8461 40.1539 37.75 42.5 37.75H46.25C46.3939 37.75 46.5 37.8561 46.5 38V39.5C46.5 41.5545 44.9616 43.2396 42.9707 43.4717C42.7048 40.9668 40.5727 39 38 39C35.4176 39 33.2781 40.9816 33.0254 43.5H30.9746C30.7219 40.9816 28.5824 39 26 39C23.4273 39 21.2942 40.9667 21.0283 43.4717C19.0379 43.2392 17.5 41.5542 17.5 39.5V36.5C17.5 35.9511 17.9511 35.5 18.5 35.5H32.75C35.0961 35.5 37 33.5961 37 31.25V23C37 22.4511 37.4511 22 38 22Z" fill="#05422C" stroke="#05422C"/>
<path d="M26 41.5C27.3807 41.5 28.5 42.6193 28.5 44C28.5 45.3807 27.3807 46.5 26 46.5C24.6193 46.5 23.5 45.3807 23.5 44C23.5 42.6193 24.6193 41.5 26 41.5Z" fill="#C3D2CC" stroke="#C3D2CC"/>
<path d="M38 41.5C39.3807 41.5 40.5 42.6193 40.5 44C40.5 45.3807 39.3807 46.5 38 46.5C36.6193 46.5 35.5 45.3807 35.5 44C35.5 42.6193 36.6193 41.5 38 41.5Z" fill="#C3D2CC" stroke="#C3D2CC"/>
<path d="M47 32.795V35H42.5C41.675 35 41 34.325 41 33.5V29C41 28.175 41.675 27.5 42.5 27.5H44.435L46.61 31.31C46.865 31.76 47 32.27 47 32.795Z" fill="#C3D2CC"/>
<path d="M33.62 17H22.535C19.85 17 17.6 18.92 17.105 21.47H23.66C24.23 21.47 24.68 21.935 24.68 22.505C24.68 23.075 24.23 23.525 23.66 23.525H17V25.595H20.9C21.47 25.595 21.935 26.06 21.935 26.63C21.935 27.2 21.47 27.65 20.9 27.65H17V29.72H18.155C18.725 29.72 19.19 30.185 19.19 30.755C19.19 31.325 18.725 31.775 18.155 31.775H17V32.12C17 32.945 17.675 33.62 18.5 33.62H32.225C33.755 33.62 35 32.375 35 30.845V18.38C35 17.615 34.385 17 33.62 17Z" fill="#05422C"/>
<path d="M17.105 21.4697H16.88H15.41C14.84 21.4697 14.375 21.9347 14.375 22.5047C14.375 23.0747 14.84 23.5247 15.41 23.5247H16.775H17V22.5347C17 22.1747 17.045 21.8147 17.105 21.4697Z" fill="#05422C"/>
<path d="M16.775 25.5947H15.41C14.84 25.5947 14.375 26.0597 14.375 26.6297C14.375 27.1997 14.84 27.6497 15.41 27.6497H16.775H17V25.5947H16.775Z" fill="#05422C"/>
<path d="M16.775 29.7197H15.41C14.84 29.7197 14.375 30.1847 14.375 30.7547C14.375 31.3247 14.84 31.7747 15.41 31.7747H16.775H17V29.7197H16.775Z" fill="#05422C"/>
<rect x="12" y="84" width="40" height="4" rx="2" fill="#F2F6F4"/>
</svg>
