<svg width="65" height="64" viewBox="0 0 65 64" fill="none" xmlns="http://www.w3.org/2000/svg">
<rect x="14.2773" y="20.4443" width="31.1111" height="28.4444" rx="8" fill="#9BDDA2"/>
<path d="M32.4998 8.00039C31.3112 7.10898 29.8979 6.56614 28.4182 6.43272C26.9386 6.2993 25.4509 6.58055 24.1221 7.24498C22.7932 7.9094 21.6757 8.93074 20.8946 10.1945C20.1135 11.4584 19.6998 12.9147 19.6998 14.4004V19.2004H16.4998C15.6511 19.2004 14.8372 19.5375 14.2371 20.1377C13.6369 20.7378 13.2998 21.5517 13.2998 22.4004V48.0004C13.2998 50.5465 14.3112 52.9883 16.1116 54.7886C17.9119 56.589 20.3537 57.6004 22.8998 57.6004H37.3958L34.263 54.4004H22.8998C21.2024 54.4004 19.5746 53.7261 18.3743 52.5259C17.1741 51.3256 16.4998 49.6978 16.4998 48.0004V22.4004H35.6998V28.9668C36.2367 28.856 36.7836 28.8002 37.3318 28.8004H38.8998V22.4004H48.4998V29.0468C49.671 29.3444 50.7686 29.9044 51.6998 30.6916V22.4004C51.6998 21.5517 51.3627 20.7378 50.7625 20.1377C50.1624 19.5375 49.3485 19.2004 48.4998 19.2004H45.2998V14.4004C45.2998 12.9147 44.8861 11.4584 44.105 10.1945C43.3239 8.93074 42.2064 7.9094 40.8775 7.24498C39.5487 6.58055 38.0611 6.2993 36.5814 6.43272C35.1017 6.56614 33.6884 7.10898 32.4998 8.00039ZM22.8998 14.4004C22.8998 13.1274 23.4055 11.9065 24.3057 11.0063C25.2059 10.1061 26.4268 9.60039 27.6998 9.60039C28.9728 9.60039 30.1937 10.1061 31.0939 11.0063C31.9941 11.9065 32.4998 13.1274 32.4998 14.4004V19.2004H22.8998V14.4004ZM34.6342 10.4068C35.3571 9.92407 36.1975 9.6467 37.0657 9.60432C37.934 9.56193 38.7974 9.75611 39.5639 10.1661C40.3304 10.5761 40.9711 11.1866 41.4178 11.9324C41.8644 12.6781 42.1001 13.5311 42.0998 14.4004V19.2004H35.6998V14.4004C35.6998 12.9476 35.3126 11.5844 34.6342 10.4068ZM33.8822 49.4372C32.9965 48.5328 32.5003 47.3174 32.4998 46.0516V36.8356C32.4994 36.2008 32.6241 35.5721 32.8667 34.9855C33.1093 34.3989 33.4652 33.8658 33.9139 33.4168C34.3627 32.9678 34.8955 32.6115 35.4819 32.3685C36.0684 32.1255 36.697 32.0004 37.3318 32.0004H46.5254C47.815 32.0004 49.0502 32.5156 49.9558 33.4308L59.8982 43.4788C60.3495 43.9345 60.7058 44.4753 60.9463 45.0698C61.1868 45.6643 61.3069 46.3006 61.2994 46.9419C61.292 47.5832 61.1572 48.2166 60.9029 48.8054C60.6487 49.3941 60.2799 49.9265 59.8182 50.3716L50.3878 59.45C49.471 60.3335 48.2421 60.8188 46.969 60.8002C45.6959 60.7816 44.4817 60.2607 43.591 59.3508L33.8822 49.4372ZM38.8998 40.8004C38.8998 41.4369 39.1527 42.0474 39.6027 42.4974C40.0528 42.9475 40.6633 43.2004 41.2998 43.2004C41.9363 43.2004 42.5468 42.9475 42.9969 42.4974C43.4469 42.0474 43.6998 41.4369 43.6998 40.8004C43.6998 40.1639 43.4469 39.5534 42.9969 39.1033C42.5468 38.6532 41.9363 38.4004 41.2998 38.4004C40.6633 38.4004 40.0528 38.6532 39.6027 39.1033C39.1527 39.5534 38.8998 40.1639 38.8998 40.8004Z" fill="white"/>
</svg>
