<svg width="14" height="14" viewBox="0 0 14 14" fill="none" xmlns="http://www.w3.org/2000/svg">
<rect width="14" height="14" rx="7" fill="#EB2606"/>
<path d="M6.99431 10.08C6.56765 10.08 6.19965 9.96267 5.89031 9.728C5.58631 9.49333 5.35165 9.16267 5.18631 8.736C5.02098 8.304 4.93831 7.792 4.93831 7.2C4.93831 6.608 5.02098 6.09867 5.18631 5.672C5.35165 5.24 5.58631 4.90667 5.89031 4.672C6.19965 4.43733 6.56765 4.32 6.99431 4.32C7.42098 4.32 7.78898 4.43733 8.09831 4.672C8.40765 4.90667 8.64498 5.24 8.81031 5.672C8.97565 6.09867 9.05831 6.608 9.05831 7.2C9.05831 7.792 8.97565 8.304 8.81031 8.736C8.64498 9.16267 8.40765 9.49333 8.09831 9.728C7.78898 9.96267 7.42098 10.08 6.99431 10.08ZM6.99431 9.296C7.38365 9.296 7.68498 9.11467 7.89831 8.752C8.11165 8.384 8.21831 7.86667 8.21831 7.2C8.21831 6.53333 8.11165 6.01867 7.89831 5.656C7.68498 5.288 7.38365 5.104 6.99431 5.104C6.60498 5.104 6.30365 5.288 6.09031 5.656C5.87698 6.01867 5.77031 6.53333 5.77031 7.2C5.77031 7.86667 5.87698 8.384 6.09031 8.752C6.30365 9.11467 6.60498 9.296 6.99431 9.296Z" fill="white"/>
</svg>
