<svg width="65" height="64" viewBox="0 0 65 64" fill="none" xmlns="http://www.w3.org/2000/svg">
<rect x="24.5" y="16.8887" width="25.3333" height="40.8889" rx="8" fill="#9BDDA2"/>
<path fill-rule="evenodd" clip-rule="evenodd" d="M17.833 11.9997C17.4794 11.9997 17.1402 12.1402 16.8902 12.3902C16.6402 12.6402 16.4997 12.9794 16.4997 13.333V54.6663C16.4997 55.02 16.6402 55.3591 16.8902 55.6091C17.1402 55.8592 17.4794 55.9997 17.833 55.9997H47.1663C47.52 55.9997 47.8591 55.8592 48.1091 55.6091C48.3592 55.3591 48.4997 55.02 48.4997 54.6663V13.333C48.4997 12.9794 48.3592 12.6402 48.1091 12.3902C47.8591 12.1402 47.52 11.9997 47.1663 11.9997H39.7223V9.33301H47.1663C48.2272 9.33301 49.2446 9.75444 49.9948 10.5046C50.7449 11.2547 51.1663 12.2721 51.1663 13.333V54.6663C51.1663 55.7272 50.7449 56.7446 49.9948 57.4948C49.2446 58.2449 48.2272 58.6663 47.1663 58.6663H17.833C16.7721 58.6663 15.7547 58.2449 15.0046 57.4948C14.2544 56.7446 13.833 55.7272 13.833 54.6663V13.333C13.833 12.2721 14.2544 11.2547 15.0046 10.5046C15.7547 9.75444 16.7721 9.33301 17.833 9.33301H25.277V11.9997H17.833Z" fill="white"/>
<path fill-rule="evenodd" clip-rule="evenodd" d="M23.1667 9.33301C23.1667 8.27214 23.5881 7.25473 24.3382 6.50458C25.0884 5.75444 26.1058 5.33301 27.1667 5.33301H37.8333C38.8942 5.33301 39.9116 5.75444 40.6618 6.50458C41.4119 7.25473 41.8333 8.27214 41.8333 9.33301V11.9997C41.8333 13.0605 41.4119 14.078 40.6618 14.8281C39.9116 15.5782 38.8942 15.9997 37.8333 15.9997H27.1667C26.1058 15.9997 25.0884 15.5782 24.3382 14.8281C23.5881 14.078 23.1667 13.0605 23.1667 11.9997V9.33301ZM27.1667 7.99967C26.813 7.99967 26.4739 8.14015 26.2239 8.3902C25.9738 8.64025 25.8333 8.97939 25.8333 9.33301V11.9997C25.8333 12.3533 25.9738 12.6924 26.2239 12.9425C26.4739 13.1925 26.813 13.333 27.1667 13.333H37.8333C38.187 13.333 38.5261 13.1925 38.7761 12.9425C39.0262 12.6924 39.1667 12.3533 39.1667 11.9997V9.33301C39.1667 8.97939 39.0262 8.64025 38.7761 8.3902C38.5261 8.14015 38.187 7.99967 37.8333 7.99967H27.1667ZM20.5 27.9997C20.5 27.6461 20.6405 27.3069 20.8905 27.0569C21.1406 26.8068 21.4797 26.6663 21.8333 26.6663H31.1667C31.5203 26.6663 31.8594 26.8068 32.1095 27.0569C32.3595 27.3069 32.5 27.6461 32.5 27.9997C32.5 28.3533 32.3595 28.6924 32.1095 28.9425C31.8594 29.1925 31.5203 29.333 31.1667 29.333H21.8333C21.4797 29.333 21.1406 29.1925 20.8905 28.9425C20.6405 28.6924 20.5 28.3533 20.5 27.9997ZM20.5 21.333C20.5 20.9794 20.6405 20.6402 20.8905 20.3902C21.1406 20.1402 21.4797 19.9997 21.8333 19.9997H42.5C42.8536 19.9997 43.1928 20.1402 43.4428 20.3902C43.6929 20.6402 43.8333 20.9794 43.8333 21.333C43.8333 21.6866 43.6929 22.0258 43.4428 22.2758C43.1928 22.5259 42.8536 22.6663 42.5 22.6663H21.8333C21.4797 22.6663 21.1406 22.5259 20.8905 22.2758C20.6405 22.0258 20.5 21.6866 20.5 21.333ZM23.1667 38.6663V41.333H25.8333V38.6663H23.1667ZM21.8333 35.9997C21.4797 35.9997 21.1406 36.1402 20.8905 36.3902C20.6405 36.6402 20.5 36.9794 20.5 37.333V42.6663C20.5 43.02 20.6405 43.3591 20.8905 43.6092C21.1406 43.8592 21.4797 43.9997 21.8333 43.9997H27.1667C27.5203 43.9997 27.8594 43.8592 28.1095 43.6092C28.3595 43.3591 28.5 43.02 28.5 42.6663V37.333C28.5 36.9794 28.3595 36.6402 28.1095 36.3902C27.8594 36.1402 27.5203 35.9997 27.1667 35.9997H21.8333ZM37.8333 38.6663C38.0133 38.6746 38.193 38.6463 38.3617 38.5831C38.5304 38.52 38.6845 38.4233 38.8148 38.299C38.9451 38.1746 39.0489 38.0252 39.1198 37.8596C39.1907 37.6941 39.2274 37.5159 39.2276 37.3357C39.2278 37.1556 39.1915 36.9773 39.1208 36.8116C39.0502 36.646 38.9468 36.4963 38.8167 36.3717C38.6867 36.2471 38.5327 36.1501 38.3642 36.0866C38.1956 36.0231 38.0159 35.9945 37.836 36.0023C37.493 36.0173 37.1691 36.1641 36.9315 36.4119C36.694 36.6598 36.5613 36.9898 36.5609 37.3331C36.5606 37.6764 36.6927 38.0066 36.9297 38.2549C37.1667 38.5033 37.4904 38.6507 37.8333 38.6663ZM37.8333 41.333C38.8942 41.333 39.9116 40.9116 40.6618 40.1614C41.4119 39.4113 41.8333 38.3939 41.8333 37.333C41.8333 36.2721 41.4119 35.2547 40.6618 34.5046C39.9116 33.7544 38.8942 33.333 37.8333 33.333C36.7725 33.333 35.7551 33.7544 35.0049 34.5046C34.2548 35.2547 33.8333 36.2721 33.8333 37.333C33.8333 38.3939 34.2548 39.4113 35.0049 40.1614C35.7551 40.9116 36.7725 41.333 37.8333 41.333ZM32.5 47.0397C32.5233 47.0124 32.5478 46.9862 32.5733 46.961C32.792 46.7477 33.2133 46.465 33.8747 46.1837C35.208 45.617 36.8533 45.333 37.8333 45.333C38.8133 45.333 40.4587 45.617 41.792 46.1837C42.4533 46.4637 42.8747 46.7477 43.0933 46.961C43.1189 46.9857 43.1433 47.0115 43.1667 47.0383V49.333H32.5V47.0397ZM37.8333 42.6663C35.1627 42.6663 29.8333 44.0877 29.8333 46.909V51.9997H45.8333V46.909C45.8333 44.0877 40.504 42.6663 37.8333 42.6663Z" fill="white"/>
</svg>
