<svg width="10" height="10" viewBox="0 0 10 10" fill="none" xmlns="http://www.w3.org/2000/svg">
<path d="M5.72104 1.4626L6.45437 2.92926C6.55437 3.13343 6.82104 3.32926 7.04604 3.36676L8.37521 3.5876C9.22521 3.72926 9.42521 4.34593 8.81271 4.95426L7.77937 5.9876C7.60437 6.1626 7.50854 6.5001 7.56271 6.74176L7.85854 8.02093C8.09187 9.03343 7.55437 9.4251 6.65854 8.89593L5.41271 8.15843C5.18771 8.0251 4.81687 8.0251 4.58771 8.15843L3.34187 8.89593C2.45021 9.4251 1.90854 9.02926 2.14187 8.02093L2.43771 6.74176C2.49187 6.5001 2.39604 6.1626 2.22104 5.9876L1.18771 4.95426C0.579373 4.34593 0.775206 3.72926 1.62521 3.5876L2.95437 3.36676C3.17521 3.32926 3.44187 3.13343 3.54187 2.92926L4.27521 1.4626C4.67521 0.666764 5.32521 0.666764 5.72104 1.4626Z" fill="#F2BC1B" stroke="#F2BC1B" stroke-width="1.5" stroke-linecap="round" stroke-linejoin="round"/>
</svg>
